<svg width="168" height="19" viewBox="0 0 168 19" fill="none" xmlns="http://www.w3.org/2000/svg">
<path d="M2.744 18.216C2.04 18.216 1.496 18.024 1.112 17.64C0.728 17.256 0.536 16.704 0.536 15.984V3.312C0.536 2.592 0.728 2.04 1.112 1.656C1.496 1.272 2.048 1.08 2.768 1.08H8.672C10.592 1.08 12.072 1.576 13.112 2.568C14.168 3.544 14.696 4.896 14.696 6.624C14.696 8.352 14.168 9.712 13.112 10.704C12.072 11.68 10.592 12.168 8.672 12.168H4.952V15.984C4.952 16.704 4.76 17.256 4.376 17.64C4.008 18.024 3.464 18.216 2.744 18.216ZM4.952 8.784H7.904C9.632 8.784 10.496 8.064 10.496 6.624C10.496 5.184 9.632 4.464 7.904 4.464H4.952V8.784ZM19.4427 18.216C18.7387 18.216 18.1947 18.024 17.8107 17.64C17.4267 17.256 17.2347 16.696 17.2347 15.96V3.12C17.2347 2.384 17.4267 1.824 17.8107 1.44C18.1947 1.056 18.7387 0.863999 19.4427 0.863999C20.1467 0.863999 20.6907 1.056 21.0747 1.44C21.4587 1.824 21.6507 2.384 21.6507 3.12V15.96C21.6507 16.696 21.4587 17.256 21.0747 17.64C20.7067 18.024 20.1627 18.216 19.4427 18.216ZM26.7513 18C25.9993 18 25.4313 17.792 25.0473 17.376C24.6793 16.96 24.5193 16.432 24.5673 15.792C24.6153 15.152 24.9033 14.504 25.4313 13.848L32.7033 4.704H26.4153C25.1513 4.704 24.5193 4.096 24.5193 2.88C24.5193 1.68 25.1513 1.08 26.4153 1.08H35.7753C36.5273 1.08 37.0953 1.288 37.4793 1.704C37.8633 2.12 38.0233 2.648 37.9593 3.288C37.9113 3.928 37.6233 4.576 37.0953 5.232L29.7993 14.376H36.4953C37.7593 14.376 38.3913 14.976 38.3913 16.176C38.3913 17.392 37.7593 18 36.4953 18H26.7513ZM42.2313 18C41.4793 18 40.9113 17.792 40.5273 17.376C40.1593 16.96 39.9993 16.432 40.0473 15.792C40.0953 15.152 40.3833 14.504 40.9113 13.848L48.1833 4.704H41.8953C40.6313 4.704 39.9993 4.096 39.9993 2.88C39.9993 1.68 40.6313 1.08 41.8953 1.08H51.2553C52.0073 1.08 52.5753 1.288 52.9593 1.704C53.3433 2.12 53.5033 2.648 53.4393 3.288C53.3913 3.928 53.1033 4.576 52.5753 5.232L45.2793 14.376H51.9753C53.2393 14.376 53.8713 14.976 53.8713 16.176C53.8713 17.392 53.2393 18 51.9753 18H42.2313ZM56.7089 18.216C55.9569 18.216 55.4049 17.96 55.0529 17.448C54.7009 16.936 54.7009 16.296 55.0529 15.528L61.0289 2.664C61.3169 2.04 61.6689 1.584 62.0849 1.296C62.5009 1.008 62.9889 0.863999 63.5489 0.863999C64.0929 0.863999 64.5729 1.008 64.9889 1.296C65.4049 1.584 65.7569 2.04 66.0449 2.664L72.0209 15.528C72.3889 16.312 72.4049 16.96 72.0689 17.472C71.7329 17.968 71.2049 18.216 70.4849 18.216C69.8449 18.216 69.3489 18.072 68.9969 17.784C68.6609 17.496 68.3569 17.032 68.0849 16.392L67.3169 14.568H59.7569L58.9889 16.392C58.7009 17.032 58.4049 17.496 58.1009 17.784C57.7969 18.072 57.3329 18.216 56.7089 18.216ZM63.5009 5.688L61.1969 11.184H65.8529L63.5489 5.688H63.5009ZM84.2568 18.216C83.5528 18.216 83.0088 18.024 82.6248 17.64C82.2408 17.256 82.0488 16.696 82.0488 15.96V3.12C82.0488 2.384 82.2408 1.824 82.6248 1.44C83.0088 1.056 83.5528 0.863999 84.2568 0.863999C84.9608 0.863999 85.5048 1.056 85.8888 1.44C86.2728 1.824 86.4648 2.384 86.4648 3.12V7.608H93.4488V3.12C93.4488 2.384 93.6408 1.824 94.0248 1.44C94.4088 1.056 94.9528 0.863999 95.6568 0.863999C96.3608 0.863999 96.8968 1.056 97.2648 1.44C97.6488 1.824 97.8408 2.384 97.8408 3.12V15.96C97.8408 16.696 97.6488 17.256 97.2648 17.64C96.8968 18.024 96.3608 18.216 95.6568 18.216C94.9368 18.216 94.3848 18.024 94.0008 17.64C93.6328 17.256 93.4488 16.696 93.4488 15.96V11.232H86.4648V15.96C86.4648 16.696 86.2728 17.256 85.8888 17.64C85.5208 18.024 84.9768 18.216 84.2568 18.216ZM109.556 18.264C107.844 18.264 106.34 17.904 105.044 17.184C103.764 16.448 102.764 15.424 102.044 14.112C101.324 12.8 100.964 11.272 100.964 9.528C100.964 7.768 101.316 6.24 102.02 4.944C102.74 3.632 103.748 2.616 105.044 1.896C106.34 1.176 107.844 0.816 109.556 0.816C111.268 0.816 112.764 1.176 114.044 1.896C115.34 2.616 116.348 3.632 117.068 4.944C117.788 6.24 118.148 7.768 118.148 9.528C118.148 11.272 117.788 12.8 117.068 14.112C116.348 15.424 115.34 16.448 114.044 17.184C112.764 17.904 111.268 18.264 109.556 18.264ZM109.556 14.568C110.804 14.568 111.78 14.128 112.484 13.248C113.204 12.352 113.564 11.112 113.564 9.528C113.564 7.944 113.212 6.712 112.508 5.832C111.804 4.952 110.82 4.512 109.556 4.512C108.292 4.512 107.308 4.952 106.604 5.832C105.9 6.712 105.548 7.944 105.548 9.528C105.548 11.112 105.9 12.352 106.604 13.248C107.308 14.128 108.292 14.568 109.556 14.568ZM128.723 18.264C126.259 18.264 124.371 17.64 123.059 16.392C121.763 15.144 121.115 13.28 121.115 10.8V3.096C121.115 2.376 121.307 1.824 121.691 1.44C122.075 1.056 122.619 0.863999 123.323 0.863999C124.027 0.863999 124.571 1.056 124.955 1.44C125.339 1.824 125.531 2.376 125.531 3.096V10.848C125.531 12.08 125.803 13.008 126.347 13.632C126.891 14.256 127.683 14.568 128.723 14.568C129.747 14.568 130.531 14.256 131.075 13.632C131.619 13.008 131.891 12.08 131.891 10.848V3.096C131.891 2.376 132.075 1.824 132.443 1.44C132.827 1.056 133.371 0.863999 134.075 0.863999C134.779 0.863999 135.315 1.056 135.683 1.44C136.051 1.824 136.235 2.376 136.235 3.096V10.8C136.235 13.28 135.595 15.144 134.315 16.392C133.051 17.64 131.187 18.264 128.723 18.264ZM145.957 18.264C144.981 18.264 143.973 18.168 142.933 17.976C141.909 17.768 141.029 17.48 140.293 17.112C139.861 16.904 139.557 16.624 139.381 16.272C139.205 15.92 139.141 15.56 139.189 15.192C139.237 14.808 139.373 14.472 139.597 14.184C139.821 13.88 140.117 13.68 140.485 13.584C140.853 13.472 141.269 13.52 141.733 13.728C142.341 14.032 143.029 14.264 143.797 14.424C144.565 14.568 145.285 14.64 145.957 14.64C147.013 14.64 147.749 14.504 148.165 14.232C148.597 13.944 148.813 13.592 148.813 13.176C148.813 12.808 148.661 12.512 148.357 12.288C148.069 12.064 147.549 11.872 146.797 11.712L143.989 11.112C140.949 10.456 139.429 8.864 139.429 6.336C139.429 5.232 139.725 4.264 140.317 3.432C140.925 2.6 141.765 1.96 142.837 1.512C143.909 1.048 145.157 0.816 146.581 0.816C147.413 0.816 148.253 0.911999 149.101 1.104C149.965 1.28 150.709 1.552 151.333 1.92C151.813 2.176 152.117 2.528 152.245 2.976C152.373 3.408 152.357 3.832 152.197 4.248C152.037 4.664 151.749 4.968 151.333 5.16C150.933 5.352 150.421 5.32 149.797 5.064C149.317 4.856 148.789 4.704 148.213 4.608C147.637 4.496 147.077 4.44 146.533 4.44C145.637 4.44 144.949 4.6 144.469 4.92C143.989 5.224 143.749 5.624 143.749 6.12C143.749 6.472 143.893 6.76 144.181 6.984C144.469 7.208 144.981 7.4 145.717 7.56L148.501 8.16C151.589 8.816 153.133 10.368 153.133 12.816C153.133 13.92 152.837 14.88 152.245 15.696C151.653 16.512 150.821 17.144 149.749 17.592C148.677 18.04 147.413 18.264 145.957 18.264ZM158.085 18C156.549 18 155.781 17.24 155.781 15.72V3.36C155.781 1.84 156.549 1.08 158.085 1.08H166.221C167.373 1.08 167.949 1.64 167.949 2.76C167.949 3.912 167.373 4.488 166.221 4.488H160.005V7.704H165.693C166.845 7.704 167.421 8.272 167.421 9.408C167.421 10.544 166.845 11.112 165.693 11.112H160.005V14.592H166.221C167.373 14.592 167.949 15.16 167.949 16.296C167.949 17.432 167.373 18 166.221 18H158.085Z" fill="black"/>
</svg>
